<?xml version="1.0" encoding="iso-8859-1"?>
<!-- Generator: Adobe Illustrator 19.0.0, SVG Export Plug-In . SVG Version: 6.00 Build 0)  -->
<svg version="1.1" id="Capa_1" xmlns="http://www.w3.org/2000/svg" xmlns:xlink="http://www.w3.org/1999/xlink" x="0px" y="0px"
	 viewBox="0 0 512 512" style="enable-background:new 0 0 512 512;" xml:space="preserve">
<g>
	<g>
		<path d="M221.548,340.351c-3.913-3.903-10.249-3.903-14.152,0c-3.913,3.913-3.913,10.249,0,14.162
			c3.903,3.903,10.239,3.903,14.152,0C225.451,350.6,225.451,344.264,221.548,340.351z"/>
	</g>
</g>
<g>
	<g>
		<path d="M475.044,168.651c-14.158-5.459-31.674-9.572-50.007-11.874c14.184-16.204,25.373-33.165,32.114-48.889
			c9.743-22.73,9.243-41.114-1.405-51.763c-10.65-10.656-29.036-11.16-51.768-1.418c-15.727,6.74-32.69,17.929-48.9,32.117
			c-2.302-18.318-6.416-35.809-11.873-49.94C331.431,6.404,317.085,0.006,307.122,0.006c-10.646,0-25.837,7.087-37.747,40.851
			c-9.786,27.745-14.73,66.895-11.097,103.916c-28.743-4.394-55.032,5.607-75.187,28.983
			C113.759,254.173,60.76,327.488,29.826,385.773C-1.236,444.301-8.077,483.434,9.495,502.087c0.136,0.146,0.277,0.286,0.422,0.423
			c25.717,24.224,84.895-3.654,116.318-20.331c58.29-30.936,131.602-83.934,212.013-153.265
			c23.42-20.188,33.413-46.528,28.964-75.324c37.116,3.634,76.255-1.38,103.859-11.099C504.899,230.582,512,215.39,512,204.742
			C512,194.778,505.588,180.427,475.044,168.651z M411.862,73.105c13.845-5.934,25.512-7.044,29.726-2.827
			c4.212,4.212,3.099,15.879-2.836,29.724c-16.504,38.502-62.636,82.829-98.729,96.396c-3.561-4.368-7.435-8.655-11.585-12.798
			c-4.207-4.214-8.556-8.142-12.983-11.745C329.013,135.792,373.296,89.633,411.862,73.105z M287.467,50.048
			c6.062-18.447,13.667-30.025,19.654-30.025c2.805,0,10.054,5.03,17.408,24.072c6.38,16.52,10.746,38.372,12.138,60.524
			c-17.119,18.245-30.425,37.689-38.003,55.35c-6.444-3.898-12.989-7.114-19.585-9.631
			C273.949,112.123,279.312,74.869,287.467,50.048z M325.177,313.754c-79.298,68.371-151.335,120.497-208.326,150.743
			c-38.136,20.241-63.739,27.527-78.837,27.525c-6.765,0-11.424-1.463-14.151-3.88c-7.812-8.813-5.664-37.762,23.645-92.984
			c30.245-56.987,82.371-129.027,150.744-208.33c33.005-38.28,80.434-24.73,116.032,10.927
			C350.237,233.645,363.184,280.991,325.177,313.754z M464.424,223.611c-26.92,9.478-66.368,14.047-102.808,9.178
			c-2.53-6.603-5.765-13.157-9.683-19.611c17.661-7.581,37.096-20.885,55.317-37.99c22.163,1.393,44.04,5.759,60.594,12.142
			c19.095,7.361,24.14,14.611,24.14,17.414C491.983,207.912,486.223,215.935,464.424,223.611z"/>
	</g>
</g>
<g>
	<g>
		<path d="M279.88,231.975l-28.305-28.305c-3.908-3.906-10.246-3.907-14.154,0c-3.908,3.908-3.909,10.246,0,14.155l28.305,28.305
			c3.909,3.907,10.246,3.908,14.154,0S283.789,235.884,279.88,231.975z"/>
	</g>
</g>
<g>
	<g>
		<path d="M265.727,302.746l-28.304-28.305c-3.908-3.907-10.246-3.907-14.155,0c-3.908,3.908-3.908,10.246,0,14.155l28.305,28.305
			c3.909,3.908,10.246,3.908,14.155,0C269.636,312.993,269.636,306.656,265.727,302.746z"/>
	</g>
</g>
<g>
	<g>
		<path d="M194.956,316.9l-28.305-28.305c-3.908-3.907-10.246-3.907-14.155,0c-3.908,3.908-3.908,10.246,0,14.155l28.305,28.305
			c3.909,3.908,10.246,3.908,14.155,0C198.864,327.147,198.864,320.809,194.956,316.9z"/>
	</g>
</g>
<g>
	<g>
		<path d="M180.802,387.67l-28.315-28.305c-3.908-3.907-10.246-3.906-14.154,0.002c-3.908,3.909-3.906,10.247,0.002,14.155
			l28.315,28.305c3.908,3.907,10.246,3.907,14.154-0.002C184.712,397.916,184.71,391.578,180.802,387.67z"/>
	</g>
</g>
<g>
	<g>
		<path d="M124.185,415.986L95.87,387.671c-3.908-3.907-10.246-3.907-14.155,0c-3.908,3.908-3.908,10.246,0,14.155l28.315,28.315
			c3.909,3.908,10.246,3.908,14.155,0C128.093,426.233,128.093,419.895,124.185,415.986z"/>
	</g>
</g>
<g>
</g>
<g>
</g>
<g>
</g>
<g>
</g>
<g>
</g>
<g>
</g>
<g>
</g>
<g>
</g>
<g>
</g>
<g>
</g>
<g>
</g>
<g>
</g>
<g>
</g>
<g>
</g>
<g>
</g>
</svg>
