<?xml version="1.0" encoding="iso-8859-1"?>
<!-- Generator: Adobe Illustrator 19.0.0, SVG Export Plug-In . SVG Version: 6.00 Build 0)  -->
<svg version="1.1" id="Layer_1" xmlns="http://www.w3.org/2000/svg" xmlns:xlink="http://www.w3.org/1999/xlink" x="0px" y="0px"
	 viewBox="0 0 512.372 512.372" style="enable-background:new 0 0 512.372 512.372;" xml:space="preserve">
<g transform="translate(1 1)">
	<g>
		<path d="M475.705,360.467c0-0.898,0-0.898,0-1.797v-8.982l-4.491-2.695c-40.421-21.558-59.284-52.098-59.284-93.418
			c0-35.032,15.27-64.674,43.116-84.435l10.779-5.389l-7.186-8.982c-17.965-22.456-48.505-52.996-96.112-52.996
			c-9.071,0-17.508,2.228-25.877,5.536c19.7-21.323,30.368-48.388,30.368-79.192c0-5.389,0-10.779-0.898-17.067V9.253V8.355
			l-0.898-2.695c-0.898-1.797-1.797-4.491-4.491-5.389c-2.695-0.898-4.491-1.797-7.186-0.898
			c-47.607,13.474-97.909,51.2-97.909,117.67c0,3.832,0.005,7.67,0.412,11.909c-7.832-2.045-14.699-5.871-21.97-10.112
			c-12.575-7.186-26.049-15.27-46.709-15.27c-90.723,0-153.6,82.639-153.6,156.295c0,40.421,12.575,110.484,48.505,175.158
			c27.846,50.302,60.182,76.351,94.316,76.351c12.575,0,25.151-4.491,39.523-8.982c14.372-6.288,30.54-11.677,46.709-11.677
			c13.474,0,26.947,5.389,40.421,9.881c13.474,4.491,27.846,9.881,42.218,9.881c70.961,0,131.144-88.926,131.144-144.618
			C476.604,364.06,475.705,362.263,475.705,360.467z M348.155,20.032c0.898,3.593,0.898,6.288,0,8.982
			c0,61.081-45.811,88.028-74.554,98.807c-0.898-4.491-0.898-8.084-0.898-10.779C272.702,64.944,310.428,33.505,348.155,20.032z
			 M458.639,362.263c0,0.898,0,1.796,0,2.695c0,67.368-70.063,126.653-113.179,126.653c-11.677,0-24.253-4.491-36.828-8.982
			c-15.27-5.39-30.54-10.779-46.709-10.779c-19.761,0-37.726,6.288-52.996,12.575c-11.677,4.491-23.354,8.982-32.337,8.982
			c-34.133,0-61.979-35.93-78.147-66.47c-34.133-61.979-46.709-128.449-46.709-167.074c0-81.74,71.86-138.33,135.635-138.33
			c15.27,0,26.049,6.288,38.625,13.474c12.575,7.186,25.151,14.372,43.116,14.372c23.354,0,42.218-8.982,58.386-17.067
			c13.474-6.288,24.253-11.677,35.93-11.677c35.032,0,59.284,18.863,76.351,38.625c-28.744,22.456-44.912,55.691-44.912,94.316
			c0,46.709,20.66,81.74,63.775,105.993C458.639,360.467,458.639,361.365,458.639,362.263z"/>
	</g>
</g>
<g>
</g>
<g>
</g>
<g>
</g>
<g>
</g>
<g>
</g>
<g>
</g>
<g>
</g>
<g>
</g>
<g>
</g>
<g>
</g>
<g>
</g>
<g>
</g>
<g>
</g>
<g>
</g>
<g>
</g>
</svg>
