<?xml version="1.0" encoding="iso-8859-1"?>
<!-- Generator: Adobe Illustrator 19.0.0, SVG Export Plug-In . SVG Version: 6.00 Build 0)  -->
<svg version="1.1" id="Capa_1" xmlns="http://www.w3.org/2000/svg" xmlns:xlink="http://www.w3.org/1999/xlink" x="0px" y="0px"
	 viewBox="0 0 490.666 490.666" style="enable-background:new 0 0 490.666 490.666;" xml:space="preserve">
<g>
	<g>
		<path d="M394.667,373.333c-29.397,0-53.333,23.936-53.333,53.333S365.269,480,394.667,480S448,456.064,448,426.666
			S424.064,373.333,394.667,373.333z M394.667,458.666c-17.643,0-32-14.357-32-32c0-17.643,14.357-32,32-32
			c17.643,0,32,14.357,32,32C426.667,444.309,412.309,458.666,394.667,458.666z"/>
	</g>
</g>
<g>
	<g>
		<path d="M181.333,373.333c-29.397,0-53.333,23.936-53.333,53.333S151.936,480,181.333,480s53.333-23.936,53.333-53.333
			S210.731,373.333,181.333,373.333z M181.333,458.666c-17.643,0-32-14.357-32-32c0-17.643,14.357-32,32-32s32,14.357,32,32
			C213.333,444.309,198.976,458.666,181.333,458.666z"/>
	</g>
</g>
<g>
	<g>
		<path d="M437.333,330.666H191.125c-25.323,0-47.317-18.027-52.288-42.88L85.12,19.242c-1.003-4.992-5.376-8.576-10.453-8.576h-64
			C4.779,10.666,0,15.445,0,21.333S4.779,32,10.667,32H65.92l51.989,259.989c6.955,34.773,37.76,60.011,73.216,60.011h246.208
			c5.888,0,10.667-4.779,10.667-10.667C448,335.445,443.221,330.666,437.333,330.666z"/>
	</g>
</g>
<g>
	<g>
		<path d="M488,78.272c-2.027-2.283-4.928-3.605-8-3.605H96c-5.888,0-10.667,4.779-10.667,10.667S90.112,96,96,96h371.925
			l-15.168,121.301c-2.005,15.979-15.659,28.032-31.765,28.032H128c-5.888,0-10.667,4.779-10.667,10.667
			c0,5.888,4.779,10.667,10.667,10.667h292.992c26.837,0,49.6-20.075,52.928-46.72l16.661-133.291
			C490.965,83.626,490.027,80.554,488,78.272z"/>
	</g>
</g>
<g>
</g>
<g>
</g>
<g>
</g>
<g>
</g>
<g>
</g>
<g>
</g>
<g>
</g>
<g>
</g>
<g>
</g>
<g>
</g>
<g>
</g>
<g>
</g>
<g>
</g>
<g>
</g>
<g>
</g>
</svg>
