<svg id="Capa_1" enable-background="new 0 0 512 512" height="512" viewBox="0 0 512 512" width="512" xmlns="http://www.w3.org/2000/svg"><g><g><path d="m393.461 367.484c-4.104-.59-7.905 2.244-8.5 6.345-3.281 22.589-6.915 45.789-10.802 68.955-.001.009-.003.018-.004.026-.897 5.348-1.825 10.798-2.771 16.269h-230.77c-20.479-118.492-33.304-230.791-40.311-352.825-.237-4.136-3.807-7.293-7.917-7.058-4.136.238-7.296 3.782-7.058 7.917 7.149 124.534 20.332 238.981 41.477 360.108v22.279c0 12.407 10.094 22.5 22.5 22.5h214.454c12.406 0 22.5-10.093 22.5-22.5v-22.92c0-.935-.179-1.827-.492-2.653 1.087-6.264 2.155-12.516 3.181-18.635.002-.01.004-.02.005-.03 3.905-23.273 7.556-46.581 10.852-69.277.596-4.099-2.245-7.905-6.344-8.501zm-22.202 122.016c0 4.135-3.364 7.5-7.5 7.5h-214.454c-4.136 0-7.5-3.365-7.5-7.5v-15.42h229.454z"/><path d="m413.302 0h-314.605c-9.65 0-17.502 7.846-17.502 17.489 0 .202.003.404.011.643.673 18.506 1.438 36.661 2.273 53.961.201 4.137 3.728 7.332 7.854 7.129 4.137-.2 7.329-3.716 7.129-7.853-.833-17.241-1.596-35.335-2.265-53.747l-.002-.133c0-1.373 1.122-2.489 2.502-2.489h314.605c1.38 0 2.503 1.116 2.501 2.587-4.37 120.371-12.396 219.578-26.021 321.668-.549 4.105 2.336 7.878 6.441 8.426.337.045.671.067 1.002.067 3.7 0 6.921-2.74 7.425-6.509 13.692-102.587 21.755-202.237 26.143-323.086.009-.223.013-.445.013-.665-.001-9.643-7.852-17.488-17.504-17.488z"/><path d="m159.611 444.08h192.777c3.665 0 6.793-2.649 7.397-6.264 16.002-95.753 26.71-185.602 33.698-282.757.312-4.344-3.132-8.038-7.48-8.038h-260.006c-4.356 0-7.792 3.701-7.48 8.038 6.988 97.159 17.696 187.007 33.697 282.757.604 3.615 3.732 6.264 7.397 6.264zm218.324-282.059c-6.805 91.493-16.992 176.758-31.903 267.059h-180.065c-14.91-90.297-25.098-175.562-31.902-267.059z"/></g></g></svg>