<?xml version="1.0" encoding="iso-8859-1"?>
<!-- Generator: Adobe Illustrator 18.0.0, SVG Export Plug-In . SVG Version: 6.00 Build 0)  -->
<!DOCTYPE svg PUBLIC "-//W3C//DTD SVG 1.1//EN" "http://www.w3.org/Graphics/SVG/1.1/DTD/svg11.dtd">
<svg version="1.1" id="Capa_1" xmlns="http://www.w3.org/2000/svg" xmlns:xlink="http://www.w3.org/1999/xlink" x="0px" y="0px"
	 viewBox="0 0 398.86 398.86" style="enable-background:new 0 0 398.86 398.86;" xml:space="preserve">
<path d="M398.084,77.316c-1.395-2.056-4.192-2.594-6.25-1.199l-70.677,47.917c-2.038-32.837-29.451-58.969-62.756-58.969
	c-1.978,0-3.933,0.103-5.866,0.284c-11.583-17.531-31.437-28.31-52.52-28.31c-21.083,0-40.939,10.779-52.521,28.31
	c-1.933-0.18-3.887-0.283-5.865-0.283c-33.476,0-61.007,26.397-62.794,59.47h-0.391L7.026,76.116
	c-2.057-1.394-4.854-0.857-6.25,1.199c-1.395,2.058-0.857,4.855,1.199,6.25l70.813,48.009L94.943,357.76
	c0.226,2.305,2.163,4.061,4.479,4.061h201.247c2.315,0,4.253-1.757,4.478-4.061l22.242-227.078l69.496-47.116
	C398.942,82.171,399.479,79.373,398.084,77.316z M83.021,143.731l-0.999-10.197h236.044l-0.995,10.156H83.422
	C83.285,143.691,83.156,143.719,83.021,143.731z M169.528,124.534c-1.693-13.881-13.602-24.706-27.9-24.706
	c-14.299,0-26.208,10.825-27.901,24.706h-8.185c1.736-18.378,17.292-32.837,36.086-32.837c18.794,0,34.349,14.459,36.085,32.837
	H169.528z M160.414,124.534H122.84c1.619-8.905,9.445-15.706,18.787-15.706C150.969,108.828,158.794,115.63,160.414,124.534z
	 M218.896,79.094c-5.131-4.676-11.8-7.291-18.882-7.291c-7.083,0-13.752,2.615-18.883,7.291c-2.143-1.737-4.398-3.337-6.759-4.785
	c6.77-6.807,15.863-10.637,25.642-10.637c9.778,0,18.871,3.831,25.641,10.637C223.295,75.756,221.039,77.357,218.896,79.094z
	 M200.014,80.802c4.561,0,8.868,1.601,12.276,4.475c-5.2,5.614-9.383,12.175-12.276,19.388c-2.893-7.213-7.076-13.775-12.276-19.388
	C191.145,82.403,195.452,80.802,200.014,80.802z M286.301,124.534c-1.694-13.881-13.602-24.706-27.901-24.706
	c-14.299,0-26.208,10.825-27.901,24.706h-8.184c1.735-18.378,17.29-32.837,36.085-32.837c18.794,0,34.349,14.459,36.085,32.837
	H286.301z M277.187,124.534h-37.574c1.619-8.905,9.445-15.706,18.787-15.706C267.742,108.828,275.568,115.63,277.187,124.534z
	 M312.171,124.534h-8.658c-1.762-23.341-21.365-41.837-45.113-41.837c-23.749,0-43.352,18.496-45.113,41.837h-8.658
	c1.775-28.108,25.25-50.47,53.77-50.47C286.92,74.065,310.395,96.426,312.171,124.534z M200.014,46.038
	c16.726,0,32.551,7.919,42.686,21.018c-3.005,0.777-5.924,1.772-8.74,2.967c-8.602-9.792-20.777-15.352-33.946-15.352
	c-13.171,0-25.345,5.561-33.947,15.352c-2.816-1.195-5.735-2.19-8.74-2.967C167.462,53.958,183.288,46.038,200.014,46.038z
	 M141.627,74.065c28.519,0,51.994,22.361,53.77,50.47h-8.657c-1.762-23.341-21.365-41.837-45.113-41.837
	c-23.748,0-43.352,18.496-45.113,41.837h-8.657C89.632,96.426,113.107,74.065,141.627,74.065z M103.502,352.822l-1.063-10.851
	h195.21l-1.063,10.851H103.502z M298.531,332.971H101.558l-17.659-180.28H316.19L298.531,332.971z"/>
<g>
</g>
<g>
</g>
<g>
</g>
<g>
</g>
<g>
</g>
<g>
</g>
<g>
</g>
<g>
</g>
<g>
</g>
<g>
</g>
<g>
</g>
<g>
</g>
<g>
</g>
<g>
</g>
<g>
</g>
</svg>
