<svg height="512pt" viewBox="0 0 512 512.01067" width="512pt" xmlns="http://www.w3.org/2000/svg"><path d="m400.003906 512.011719h-288c-26.472656 0-48-21.527344-48-48v-186.667969h-37.332031c-14.699219 0-26.66796875-11.96875-26.66796875-26.667969 0-7.058593 2.88281275-13.972656 7.89453175-18.984375l237.035156-227.242187c6.1875-5.933594 15.957031-5.933594 22.144531 0l236.800781 226.984375c5.246094 5.269531 8.125 12.183594 8.125 19.242187 0 14.699219-11.964844 26.667969-26.664062 26.667969h-37.335938v186.667969c0 26.472656-21.523437 48-48 48zm-360.125-266.667969h40.125c8.832032 0 16 7.167969 16 16v202.667969c0 8.832031 7.167969 16 16 16h288c8.832032 0 16-7.167969 16-16v-202.667969c0-8.832031 7.167969-16 16-16h40.128906l-216.128906-207.167969zm441.621094 8.960938h.210938zm0 0"/></svg>