<?xml version="1.0" encoding="iso-8859-1"?>
<!-- Generator: Adobe Illustrator 19.0.0, SVG Export Plug-In . SVG Version: 6.00 Build 0)  -->
<svg version="1.1" id="Capa_1" xmlns="http://www.w3.org/2000/svg" xmlns:xlink="http://www.w3.org/1999/xlink" x="0px" y="0px"
	 viewBox="0 0 512.001 512.001" style="enable-background:new 0 0 512.001 512.001;" xml:space="preserve">
<g>
	<g>
		<path d="M288.273,116.102c-0.386-2.776-0.416-5.596-0.086-8.382c0.487-4.113-2.455-7.843-6.567-8.329
			c-4.114-0.486-7.843,2.454-8.33,6.567c-0.48,4.058-0.438,8.167,0.125,12.213c0.571,4.103,4.36,6.965,8.463,6.394
			c1.68-0.234,3.152-1.007,4.266-2.121C287.75,120.839,288.61,118.525,288.273,116.102z"/>
	</g>
</g>
<g>
	<g>
		<path d="M172.953,178.912c-2.565-3.253-7.281-3.811-10.534-1.246c-3.209,2.53-6.085,5.465-8.548,8.725
			c-2.497,3.303-1.842,8.007,1.463,10.504c1.354,1.022,2.941,1.517,4.516,1.517c2.271,0,4.515-1.028,5.99-2.979
			c1.69-2.237,3.665-4.252,5.867-5.988C174.96,186.881,175.518,182.164,172.953,178.912z"/>
	</g>
</g>
<g>
	<g>
		<path d="M159.283,214.98c0-1.406,0.091-2.82,0.271-4.206c0.532-4.107-2.367-7.869-6.475-8.401
			c-4.105-0.536-7.87,2.367-8.402,6.475c-0.262,2.021-0.395,4.084-0.395,6.132c0,2.032,0.131,4.079,0.388,6.083
			c0.488,3.783,3.715,6.545,7.432,6.545c0.318,0,0.641-0.021,0.965-0.062c4.108-0.528,7.011-4.287,6.483-8.395
			C159.373,217.778,159.283,216.375,159.283,214.98z"/>
	</g>
</g>
<g>
	<g>
		<path d="M229.732,186.429c-2.46-3.263-5.333-6.202-8.54-8.734c-3.25-2.568-7.967-2.015-10.535,1.236
			c-2.567,3.251-2.013,7.968,1.238,10.535c2.2,1.738,4.171,3.754,5.859,5.994c1.474,1.956,3.721,2.985,5.995,2.985
			c1.572,0,3.157-0.493,4.509-1.512C231.565,194.439,232.225,189.737,229.732,186.429z"/>
	</g>
</g>
<g>
	<g>
		<path d="M238.901,208.896c-0.528-4.108-4.29-7.009-8.396-6.483c-4.109,0.528-7.011,4.286-6.483,8.395
			c0.177,1.373,0.266,2.776,0.266,4.171c0,1.406-0.091,2.82-0.271,4.206c-0.532,4.107,2.367,7.869,6.475,8.401
			c0.327,0.042,0.651,0.063,0.973,0.063c3.714,0,6.939-2.757,7.429-6.538c0.262-2.021,0.395-4.084,0.395-6.132
			C239.289,212.947,239.158,210.9,238.901,208.896z"/>
	</g>
</g>
<g>
	<g>
		<path d="M422.797,150.849h-30.001c-12.407,0-22.501,10.094-22.501,22.501c0,12.406,10.095,22.5,22.501,22.5
			c4.143,0,7.5-3.357,7.5-7.5s-3.357-7.5-7.5-7.5c-4.136,0-7.5-3.364-7.5-7.5s3.364-7.501,7.5-7.501h30.001
			c4.136,0,7.5,3.365,7.5,7.501s-3.364,7.5-7.5,7.5c-4.143,0-7.5,3.357-7.5,7.5s3.357,7.5,7.5,7.5
			c12.407,0,22.501-10.094,22.501-22.5C445.298,160.943,435.204,150.849,422.797,150.849z"/>
	</g>
</g>
<g>
	<g>
		<path d="M463.596,119.115c-1.201,0-15.946,4.354-24.001-5c-19.824-21.897-58.79-17.619-73.383,8.521c0,0.01,0,0.01-0.01,0.02
			c-3.296,5.81-9.545,8.842-15.982,8.092l-73.749-73.746c-2.93-2.928-7.678-2.928-10.608,0
			c-8.663,10.327-15.147,15.99-20.061,33.772c0,0.001-0.001,0.003-0.001,0.004c-12.184-3.897-25.241-2.906-36.072,2.694
			l-16.639-16.64c-8.772-8.771-23.048-8.771-31.822,0c-4.956,4.956-7.108,11.667-6.464,18.151
			c-17.081-0.102-33.789,9.022-42.017,24.392c-1.305,2.438-2.875,4.525-4.666,6.204c-3.022,2.833-3.175,7.579-0.342,10.602
			c2.834,3.021,7.58,3.174,10.602,0.342c2.984-2.799,5.552-6.186,7.631-10.068c7.215-13.48,24.935-19.99,39.496-14.507
			c7.513,2.817,13.623-6.646,7.945-12.324l-1.577-1.576c-2.925-2.925-2.925-7.684-0.001-10.607c2.925-2.924,7.683-2.924,10.608,0
			c22.925,22.924,23.393,22.35,23.393,26.517c0,6.732-8.136,9.953-12.785,5.304c-2.929-2.929-7.678-2.93-10.607-0.001
			c-2.93,2.929-2.93,7.678-0.001,10.606c4.237,4.238,9.888,6.572,15.911,6.572c12.459,0,22.482-10.019,22.482-22.481
			c0-2.909-0.556-5.727-1.597-8.345c7.355-2.871,16.07-2.89,23.926,0.14c-2.432,32.548,15.485,62.024,43.403,75.54
			c-2.435,4.135-6.48,6.799-10.56,7.532l-0.09,0.021c-3.494,0.688-6.882,1.821-10.109,3.339
			c-9.759-31.641-39.26-54.705-74.062-54.705c-34.024,0-62.975,22.045-73.375,52.594c-0.221-1.551-0.919-3.047-2.113-4.24
			c-4.238-4.237-9.889-6.571-15.911-6.571c-6.023,0-11.673,2.334-15.91,6.571l-21.216,21.214c-8.772,8.773-8.772,23.048,0.001,31.82
			c1.465,1.464,3.385,2.196,5.304,2.196s3.839-0.732,5.304-2.196c2.929-2.93,2.929-7.678,0-10.607
			c-2.925-2.924-2.925-7.683-0.002-10.606l21.216-21.214c1.405-1.404,3.288-2.178,5.303-2.178c2.015,0,3.898,0.773,5.303,2.179
			c2.93,2.928,7.678,2.928,10.607,0c0.115-0.115,0.218-0.237,0.323-0.358c-1.522,6.051-2.34,12.38-2.34,18.897
			c0,9.577,1.766,18.742,4.962,27.213H53.722c-11.043-4.552-16.226-14.887-15.087-24.754c0.84-7.116-1.259-17.373-16.041-25.842
			c-2.986-1.698-5.394-4.296-6.634-7.188c-4.333-9.866,6.895-18.685,17.23-16.323c12.144,2.672,22.44,0.016,28.942-7.409
			c7.936-8.833,24.611-7.024,30.529,3.631c2.01,3.622,6.576,4.93,10.198,2.916c3.622-2.01,4.927-6.576,2.917-10.197
			c-10.879-19.595-39.914-22.942-54.864-6.304c-3.584,4.091-9.861,3.734-14.447,2.725c-11.255-2.561-23.218,1.457-30.464,10.231
			c-11.299,13.684-5.742,32.472,9.158,40.945c9.258,5.304,8.748,9.634,8.578,11.075c-1.149,9.952,1.772,20.174,7.876,28.065
			c-7.362,2.223-13.896,6.738-18.722,13.115c-7.151,9.446-9.405,21.408-6.186,32.82c13.221,46.862,48.939,87.723,100.78,115.436
			c1.099,13.813,7.2,26.62,17.346,36.289c10.67,10.169,24.63,15.769,39.308,15.769H341.47c14.677,0,28.637-5.6,39.308-15.769
			c10.143-9.667,16.245-22.47,17.345-36.276c51.768-27.67,87.463-68.47,100.729-115.269c3.256-11.486,1.008-23.52-6.167-33.012
			c-7.051-9.326-17.758-14.675-29.375-14.675H315.334c5.572-19.292,23.236-32.997,44.028-32.997h0.04
			c14.17,0,27.341,6.44,36.131,17.66c1.43,1.83,3.59,2.88,5.92,2.88c1.68,0,3.279-0.55,4.609-1.59
			c3.261-2.55,3.841-7.271,1.29-10.53c-11.14-14.267-28.533-23.42-47.951-23.42c-15.182,0.01-29.722,5.64-40.952,15.85
			c-9.449,8.602-15.888,19.835-18.551,32.147h-45.379c-2.363-9.69,0.336-19.758,6.379-27.377
			c12.317-15.543,22.865-7.164,35.191-21.14c2.137-2.423,3.637-4.85,4.717-7.157c2.123-4.536,2.623-9.72,3.062-14.708
			c1.531-17.412,20.274-32.353,39.574-27.175c18.396,5.346,33.748-8.108,35.871-14.69c9.738-17.383,36.435-19.903,49.153-5.77
			c3.33,3.77,7.59,6.71,12.34,8.52c10.32,3.944,23.096,2.082,26.122,1.04c8.577-1.926,17.168,0.681,23.011,5.81
			c12.646,11.117,6.66,26.863-5.52,33.721l-0.01,0.01c-13.28,7.582-23.392,18.731-21.401,33.76c1.597,14.339-4.686,17.43-2.16,23.21
			c2.68,6.083,11.433,5.944,13.861-0.31c5.228-13.495,3.09-25.266,3.09-26.36c0.03-3.3,1.1-6,3.57-9.04
			c2.29-2.8,5.9-5.64,10.43-8.21l0.01-0.01c7.771-4.42,13.901-11.11,17.261-18.83c1.95-4.43,2.931-9,2.931-13.59
			C511.999,130.971,487.506,113.607,463.596,119.115z M191.786,152.479c29.807,0,54.785,20.979,60.996,48.942
			c-1.28,1.285-2.502,2.643-3.646,4.084c-6.74,8.52-10.46,19.039-10.47,29.63c0,2.381,0.192,4.735,0.561,7.057h-8.704
			c3.748-8.091-7.398-14.8-12.791-7.666c-1.69,2.237-3.664,4.252-5.867,5.988c-0.62,0.489-1.141,1.057-1.563,1.678h-11.017v-0.761
			c11.529-3.273,20.001-13.889,20.001-26.452c0-4.143-3.357-7.5-7.5-7.5s-7.5,3.357-7.5,7.5c0,6.893-5.608,12.5-12.5,12.5
			c-6.893,0-12.501-5.607-12.501-12.5s5.608-12.5,12.501-12.5c3.657,0,6.698-2.618,7.362-6.081c0.045,0.018,0.093,0.03,0.138,0.048
			c0-12.384,0-9.388,0-21.467c0-4.142-3.358-7.5-7.5-7.5c-4.143,0-7.5,3.358-7.5,7.5v13.548
			c-11.529,3.274-20.001,13.889-20.001,26.452c0,12.563,8.472,23.178,20.001,26.452v0.761h-11.035
			c-0.423-0.629-0.947-1.205-1.573-1.7c-2.2-1.738-4.172-3.754-5.86-5.994c-5.401-7.164-16.579-0.401-12.782,7.693h-17.49
			c-4.005-8.23-6.263-17.46-6.263-27.213C129.283,180.517,157.321,152.479,191.786,152.479z M463.307,257.192
			c6.875,0,13.22,3.179,17.409,8.721c4.315,5.708,5.665,12.952,3.701,19.876c-12.316,43.447-46.185,81.463-95.446,107.217h-244.17
			c-4.13,0-7.5,3.359-7.5,7.5c0,4.13,3.371,7.5,7.5,7.5h237.822c-3.569,19.315-20.909,34.187-41.156,34.187h-177.33
			c-22.264,0-41.018-17.979-41.806-40.082c-0.062-1.689,0.188-3.73-1.487-6.041c-0.606-0.839-1.571-1.698-2.625-2.242
			c-50.197-25.804-84.673-64.229-97.079-108.2c-1.932-6.851-0.581-14.028,3.709-19.695c4.204-5.554,10.563-8.739,17.448-8.739
			C63.176,257.192,442.3,257.192,463.307,257.192z M303.335,141.637c-0.966-4.38-3.892-4.055-8.658-10.243
			c-2.528-3.281-7.238-3.891-10.52-1.362c-3.282,2.524-3.891,7.238-1.362,10.519c2.395,3.107,5.283,6.053,8.634,8.642
			c1.288,0.994,2.796,1.5,4.307,1.555c-2.911,4.548-5.035,9.512-6.158,15.16c-33.657-19.079-41.508-63.352-18.307-92.891
			l25.154,25.153c-2.271,4.052-3.485,8.636-3.485,13.408c0,7.346,2.861,14.252,8.054,19.446c2.931,2.929,7.678,2.928,10.608,0
			c2.929-2.93,2.929-7.678,0-10.607c-2.361-2.36-3.661-5.5-3.661-8.839c0-0.594,0.056-1.178,0.137-1.756l19.457,19.456
			C318.928,130.872,310.664,134.873,303.335,141.637z"/>
	</g>
</g>
<g>
</g>
<g>
</g>
<g>
</g>
<g>
</g>
<g>
</g>
<g>
</g>
<g>
</g>
<g>
</g>
<g>
</g>
<g>
</g>
<g>
</g>
<g>
</g>
<g>
</g>
<g>
</g>
<g>
</g>
</svg>
