<?xml version="1.0" encoding="iso-8859-1"?>
<!-- Generator: Adobe Illustrator 19.0.0, SVG Export Plug-In . SVG Version: 6.00 Build 0)  -->
<svg version="1.1" id="Capa_1" xmlns="http://www.w3.org/2000/svg" xmlns:xlink="http://www.w3.org/1999/xlink" x="0px" y="0px"
	 viewBox="0 0 469.333 469.333" style="enable-background:new 0 0 469.333 469.333;" xml:space="preserve">
<g>
	<g>
		<g>
			<path d="M320,0c-48.684,0-85.223,55.137-105.866,96.69C194.793,76.767,172.983,64,149.333,64C63.062,64,0,230.281,0,316.823
				c0,84.094,66.99,152.51,149.333,152.51c53.01,0,99.538-28.438,126.044-71.076c14.564,4.607,29.518,7.076,44.622,7.076
				c82.344,0,149.333-66.99,149.333-149.333C469.333,179.646,406.271,0,320,0z M149.333,448c-70.583,0-128-58.844-128-131.177
				c0-85.021,63.25-231.49,128-231.49s128,146.469,128,231.49C277.333,389.156,219.917,448,149.333,448z M320,384
				c-11.59,0-23.023-2.138-34.288-5.327c8.263-18.927,12.954-39.824,12.954-61.85c0-56.345-26.836-146.258-69.301-202.307
				C256.958,55.346,289.77,21.333,320,21.333c67.438,0,128,159.396,128,234.667C448,326.583,390.583,384,320,384z"/>
			<path d="M64,320c0,47.052,38.281,85.333,85.333,85.333c47.052,0,85.333-38.281,85.333-85.333
				c0-47.052-38.281-85.333-85.333-85.333C102.281,234.667,64,272.948,64,320z M213.333,320c0,35.292-28.708,64-64,64
				c-35.292,0-64-28.708-64-64c0-35.292,28.708-64,64-64C184.625,256,213.333,284.708,213.333,320z"/>
		</g>
	</g>
</g>
<g>
</g>
<g>
</g>
<g>
</g>
<g>
</g>
<g>
</g>
<g>
</g>
<g>
</g>
<g>
</g>
<g>
</g>
<g>
</g>
<g>
</g>
<g>
</g>
<g>
</g>
<g>
</g>
<g>
</g>
</svg>
