<svg id="Capa_1" enable-background="new 0 0 510.815 510.815" height="512" viewBox="0 0 510.815 510.815" width="512" xmlns="http://www.w3.org/2000/svg"><g><path d="m508.477 157.353c-24.527-74.707-84.635-133.645-159.892-156.78-6.536-2.161-14.116 2.022-15.768 8.709l-37.472 139.656c-1.073 4.001 1.3 8.114 5.301 9.188 3.996 1.074 8.112-1.299 9.188-5.3l26.381-98.322c55.558 19.824 99.976 63.416 120.84 118.632l-72.375 26.568c-8.803-15.222-29.13-22.104-45.406-15.235-16.303 6.507-25.475 23.553-22.782 40.265l-28.787 10.566 13.045-48.617c1.073-4.001-1.3-8.114-5.301-9.188-4-1.073-8.113 1.299-9.188 5.3l-14.294 53.273c-2.877 9.405 7.318 18.671 16.381 14.973 64.107-23.53 148.29-54.432 212.563-78.026 6.367-2.337 9.689-9.217 7.566-15.662zm-168.356-117.398 6.512-24.272c68.879 22.091 123.503 75.687 146.833 144.087l-22.315 8.191c-22.539-59.763-70.763-106.882-131.03-128.006zm4.716 158.443c8.724-3.656 19.526-.77 25.324 6.634l-39.141 14.368c-.217-8.933 5.078-17.514 13.817-21.002z"/><path d="m483.132 210.413c-.822-3.472-3.098-6.433-6.243-8.124-3.148-1.693-6.879-1.958-10.233-.725l-90.678 33.288-45.938 16.861c-.019.007-.037.016-.056.024l-36.459 13.384c-3.888 1.428-5.883 5.737-4.456 9.626 1.428 3.887 5.734 5.882 9.626 4.456l30.12-11.057c3.902 6.446 9.668 11.54 16.713 14.636 4.77 2.096 9.817 3.146 14.874 3.146 4.541 0 9.089-.848 13.446-2.547 16.425-6.383 25.759-23.452 23.111-40.252l34.512-12.67c2.332 11.93 3.532 24.122 3.532 36.364 0 104.215-84.785 189-189 189s-189-84.785-189-189 84.785-189 189-189c12.258 0 24.471 1.202 36.417 3.541l-54.421 202.803c-1.216 4.526.179 9.303 3.637 12.466 2.35 2.147 5.354 3.28 8.42 3.279 1.448 0 2.91-.253 4.323-.771l21.455-7.876c3.888-1.428 5.883-5.737 4.456-9.626-1.428-3.887-5.736-5.879-9.626-4.456l-16.929 6.215 64.241-239.396c1.928-6.653-2.595-14.092-9.385-15.453-20.309-4.501-41.27-6.37-62.308-5.562-38.91 1.502-77.258 12.391-110.896 31.487-3.603 2.045-4.865 6.623-2.82 10.225s6.623 4.864 10.225 2.82c32.013-18.173 67.026-28.112 104.07-29.542 18.868-.725 37.684.844 55.947 4.67l-6.492 24.193c-13.218-2.658-26.743-4.017-40.315-4.017-112.486 0-204 91.514-204 204s91.514 204 204 204 204-91.514 204-204c0-14.013-1.441-27.974-4.273-41.598l23.439-8.605c3.019 13.502 4.819 27.402 5.359 41.362 2.36 61.118-19.224 119.498-60.777 164.387s-98.098 70.909-159.217 73.271c-126.174 4.854-232.794-93.818-237.667-219.995-2.828-73.243 29.983-143.992 87.771-189.254 3.261-2.554 3.834-7.268 1.279-10.529-2.555-3.263-7.27-3.833-10.529-1.28-29.784 23.329-54.081 53.686-70.263 87.79-16.722 35.244-24.76 74.613-23.245 113.852 2.515 65.127 30.24 125.377 78.069 169.649 45.465 42.084 103.912 64.944 165.52 64.942 3.204 0 6.425-.062 9.645-.187 65.123-2.515 125.371-30.24 169.646-78.068 44.276-47.829 67.274-110.034 64.759-175.156-.614-15.877-2.763-31.687-6.386-46.991zm-114.723 58.99c-.003.001-.007.002-.01.004-5.476 2.134-11.454 2.008-16.835-.357-3.248-1.427-6.041-3.566-8.212-6.24l39.062-14.34c.162 8.958-5.215 17.52-14.005 20.933z"/><path d="m210.003 166.824c18.196 0 33-14.804 33-33s-14.804-33-33-33-33 14.804-33 33 14.804 33 33 33zm0-51c9.925 0 18 8.075 18 18s-8.075 18-18 18-18-8.075-18-18 8.076-18 18-18z"/><path d="m246.003 439.824c18.196 0 33-14.804 33-33s-14.804-33-33-33-33 14.804-33 33 14.804 33 33 33zm0-51c9.925 0 18 8.075 18 18s-8.075 18-18 18-18-8.075-18-18 8.076-18 18-18z"/><path d="m90.003 229.824c0 18.196 14.804 33 33 33s33-14.804 33-33-14.804-33-33-33-33 14.804-33 33zm33-18c9.925 0 18 8.075 18 18s-8.075 18-18 18-18-8.075-18-18 8.076-18 18-18z"/><path d="m143.003 392.824c18.196 0 33-14.804 33-33s-14.804-33-33-33-33 14.804-33 33 14.804 33 33 33zm0-51c9.925 0 18 8.075 18 18s-8.075 18-18 18-18-8.075-18-18 8.076-18 18-18z"/><path d="m365.445 320.89c4.127-.353 7.188-3.983 6.835-8.11-.353-4.128-3.993-7.193-8.11-6.835-16.916 1.443-30.166 15.887-30.166 32.88 0 18.196 14.804 33 33 33s33-14.804 33-33c.575-5.437-2.424-11.698-8.706-10.822-5.429.668-7.219 6.041-6.294 10.822 0 9.925-8.075 18-18 18s-18-8.075-18-18c-.001-9.27 7.221-17.148 16.441-17.935z"/><path d="m173.622 182.889c-.358 1.038-8.639 25.625 3.236 42.544 11.816 16.836 38.003 17.979 39.111 18.02.093.003.184.005.275.005 3.188 0 6.041-2.021 7.088-5.053.358-1.039 8.64-25.626-3.235-42.546-11.818-16.835-38.004-17.978-39.112-18.019-3.308-.132-6.286 1.93-7.363 5.049zm12.733 10.643c7.006 1.249 16.833 4.345 21.466 10.944 4.569 6.51 4.056 16.476 2.78 23.285-7.006-1.249-16.833-4.345-21.465-10.945-4.569-6.51-4.055-16.475-2.781-23.284z"/><path d="m290.488 308.441c-19.105-7.63-41.648 5.738-42.599 6.312-2.826 1.703-4.207 5.054-3.402 8.254.269 1.065 6.786 26.179 25.982 33.845 4.222 1.687 8.609 2.347 12.896 2.347 15.114 0 28.962-8.212 29.702-8.658 2.826-1.704 4.207-5.054 3.402-8.254-.267-1.066-6.785-26.179-25.981-33.846zm-14.455 34.481c-7.386-2.95-12.407-11.573-15.065-17.971 6.549-2.785 16.47-5.569 23.956-2.58 7.387 2.95 12.408 11.573 15.066 17.971-6.549 2.786-16.467 5.571-23.957 2.58z"/><path d="m213.144 300.145c2.396-2.27 3.027-5.838 1.555-8.791-.489-.983-12.235-24.117-32.628-27.494-20.296-3.36-39.452 14.526-40.258 15.289-2.396 2.27-3.027 5.838-1.556 8.791.49.983 12.235 24.117 32.629 27.494 1.74.288 3.471.42 5.184.42 18.259-.001 34.338-15.012 35.074-15.709zm-56.372-13.836c5.801-4.124 14.894-8.965 22.848-7.65 7.847 1.299 14.599 8.646 18.565 14.326-5.8 4.124-14.899 8.967-22.848 7.65-7.847-1.299-14.598-8.647-18.565-14.326z"/><path d="m351.457 159.66c1.137 0 2.283-.259 3.349-.791.983-.491 24.105-12.258 27.464-32.655 3.342-20.296-14.564-39.438-15.328-40.243-2.271-2.393-5.84-3.021-8.792-1.547-.983.491-24.104 12.258-27.463 32.655-3.342 20.296 14.563 39.438 15.327 40.243 1.451 1.53 3.432 2.338 5.443 2.338zm-5.969-40.144c1.292-7.848 8.633-14.606 14.308-18.578 4.131 5.795 8.983 14.884 7.674 22.84-1.29 7.838-8.615 14.59-14.288 18.564-3.834-5.343-9.073-14.449-7.694-22.826z"/><path d="m81.003 300.324c0 12.406 10.094 22.5 22.5 22.5s22.5-10.094 22.5-22.5-10.094-22.5-22.5-22.5-22.5 10.094-22.5 22.5zm22.5-7.5c4.136 0 7.5 3.364 7.5 7.5s-3.364 7.5-7.5 7.5-7.5-3.364-7.5-7.5 3.365-7.5 7.5-7.5z"/><path d="m143.503 181.824c12.406 0 22.5-10.093 22.5-22.5s-10.094-22.5-22.5-22.5-22.5 10.093-22.5 22.5 10.094 22.5 22.5 22.5zm0-30c4.136 0 7.5 3.364 7.5 7.5s-3.364 7.5-7.5 7.5-7.5-3.364-7.5-7.5 3.365-7.5 7.5-7.5z"/><path d="m431.003 153.324c0-12.407-10.094-22.5-22.5-22.5s-22.5 10.093-22.5 22.5 10.094 22.5 22.5 22.5 22.5-10.093 22.5-22.5zm-30 0c0-4.136 3.364-7.5 7.5-7.5s7.5 3.364 7.5 7.5-3.364 7.5-7.5 7.5-7.5-3.364-7.5-7.5z"/><path d="m316.503 373.824c-12.406 0-22.5 10.094-22.5 22.5s10.094 22.5 22.5 22.5 22.5-10.094 22.5-22.5-10.093-22.5-22.5-22.5zm0 30c-4.136 0-7.5-3.364-7.5-7.5s3.364-7.5 7.5-7.5 7.5 3.364 7.5 7.5-3.364 7.5-7.5 7.5z"/><path d="m209.503 369.824c12.406 0 22.5-10.094 22.5-22.5s-10.094-22.5-22.5-22.5-22.5 10.094-22.5 22.5 10.094 22.5 22.5 22.5zm0-30c4.136 0 7.5 3.364 7.5 7.5s-3.364 7.5-7.5 7.5-7.5-3.364-7.5-7.5 3.365-7.5 7.5-7.5z"/></g></svg>